<svg xmlns="http://www.w3.org/2000/svg" viewBox="0 0 126.31 142.04"><defs><style>.cls-1{fill:#dfe3eb;}.cls-2{fill:#fff;}.cls-3{fill:#c1c6ce;}</style></defs><g id="Layer_2" data-name="Layer 2"><g id="Layer_1-2" data-name="Layer 1"><path class="cls-1" d="M58.5,141.06a11.52,11.52,0,0,0,9.31,0l53.84-27.66a9.45,9.45,0,0,0,4.66-7.63V5.24A5.26,5.26,0,0,0,121.07,0H5.24A5.26,5.26,0,0,0,0,5.24V105.77a9.45,9.45,0,0,0,4.66,7.63Z"/><path class="cls-2" d="M63.15,133.67a10.78,10.78,0,0,1-4.79-1l-46.2-23.73A9.75,9.75,0,0,1,7.34,101V13.92a5.55,5.55,0,0,1,5.54-5.55H113.43A5.55,5.55,0,0,1,119,13.92V101a9.75,9.75,0,0,1-4.82,7.91L68,132.65A10.79,10.79,0,0,1,63.15,133.67Zm-4.51-1.57a11.1,11.1,0,0,0,9,0l46.2-23.73a9.09,9.09,0,0,0,4.49-7.36V13.92A4.93,4.93,0,0,0,113.43,9H12.88A4.93,4.93,0,0,0,8,13.92V101a9.09,9.09,0,0,0,4.49,7.36Z"/><g id="gjaB5n.tif"><path class="cls-3" d="M59.67,101.8l-.29.16c.12-.51.22-.95.32-1.4.21-.88.41-1.75.63-2.62a.4.4,0,0,0-.17-.46c-1-.82-1.93-1.65-2.89-2.49a2.91,2.91,0,0,1-.23-.2l2.62-.24,1.53-.13a.36.36,0,0,0,.35-.27c.49-1.17,1-2.34,1.48-3.51l.14-.29c.2.48.39.92.58,1.36.33.78.68,1.56,1,2.36a.55.55,0,0,0,.57.37c1.3.1,2.6.22,4,.34l-.65.58-2.51,2.15a.37.37,0,0,0-.13.42c.3,1.24.59,2.49.88,3.73,0,.08,0,.16,0,.3l-.29-.17c-1.06-.64-2.13-1.28-3.19-1.94Z"/></g><path class="cls-3" d="M85.32,68A1.85,1.85,0,0,0,83,66.86c-2.9,1.06-5.11,1.15-6.38.24C75,66,75,63.43,75,63.37V32.61h7.5a1.85,1.85,0,0,0,0-3.7H42.72a1.85,1.85,0,0,0,0,3.7h8.15v37.2a1.85,1.85,0,0,0,3.69,0V32.61H71.29V63.32c0,.18-.08,4.48,3.11,6.77a7.44,7.44,0,0,0,4.47,1.33,15.72,15.72,0,0,0,5.36-1.09A1.84,1.84,0,0,0,85.32,68Z"/></g></g></svg>