<svg xmlns="http://www.w3.org/2000/svg" viewBox="0 0 126.31 142.04"><defs><style>.cls-1{fill:#dfe3eb;}.cls-2{fill:#fff;}.cls-3{fill:#c1c6ce;}</style></defs><g id="Layer_2" data-name="Layer 2"><g id="Layer_1-2" data-name="Layer 1"><path class="cls-1" d="M58.5,141.06a11.52,11.52,0,0,0,9.31,0l53.84-27.66a9.45,9.45,0,0,0,4.66-7.63V5.24A5.26,5.26,0,0,0,121.07,0H5.24A5.26,5.26,0,0,0,0,5.24V105.77a9.45,9.45,0,0,0,4.66,7.63Z"/><path class="cls-2" d="M63.15,133.67a10.78,10.78,0,0,1-4.79-1l-46.2-23.73A9.75,9.75,0,0,1,7.34,101V13.92a5.55,5.55,0,0,1,5.54-5.55H113.43A5.55,5.55,0,0,1,119,13.92V101a9.75,9.75,0,0,1-4.82,7.91L68,132.65A10.79,10.79,0,0,1,63.15,133.67ZM12.88,9A4.93,4.93,0,0,0,8,13.92V101a9.09,9.09,0,0,0,4.49,7.36l46.2,23.73a11.1,11.1,0,0,0,9,0l46.2-23.73a9.09,9.09,0,0,0,4.49-7.36V13.92A4.93,4.93,0,0,0,113.43,9Z"/><g id="gjaB5n.tif"><path class="cls-3" d="M59.67,101.8l-.29.16c.12-.51.22-.95.32-1.4.21-.88.41-1.75.63-2.62a.4.4,0,0,0-.17-.46c-1-.82-1.93-1.65-2.89-2.49a2.91,2.91,0,0,1-.23-.2l2.62-.24,1.53-.13a.36.36,0,0,0,.35-.27c.49-1.17,1-2.34,1.48-3.51l.14-.29c.2.48.39.92.58,1.36.33.78.68,1.56,1,2.36a.55.55,0,0,0,.57.37c1.3.1,2.6.22,4,.34l-.65.58-2.51,2.15a.37.37,0,0,0-.13.42c.3,1.24.59,2.49.88,3.73,0,.08,0,.16,0,.3l-.29-.17c-1.06-.64-2.13-1.28-3.19-1.94Z"/></g><path class="cls-3" d="M90.51,63.87v-12H65V43.16a8.13,8.13,0,1,0-3.69,0v8.73H35.79v12a8.12,8.12,0,1,0,3.7,0V55.59H61.31V63.7a8.13,8.13,0,1,0,3.69,0V55.59H86.82v8.28a8.13,8.13,0,1,0,3.69,0ZM58.73,35.26a4.43,4.43,0,1,1,4.42,4.43A4.43,4.43,0,0,1,58.73,35.26ZM42.07,71.77a4.43,4.43,0,1,1-4.43-4.43A4.44,4.44,0,0,1,42.07,71.77Zm25.51-.17a4.43,4.43,0,1,1-4.43-4.43A4.43,4.43,0,0,1,67.58,71.6Zm21.09,4.6a4.43,4.43,0,1,1,4.42-4.43A4.44,4.44,0,0,1,88.67,76.2Z"/></g></g></svg>